/* XPM */
static char *wall1_resized[] = {
/* columns rows colors chars-per-pixel */
"64 64 67 1 ",
"  c #02141D",
". c #021721",
"X c #031A25",
"o c #081B25",
"O c #051E29",
"+ c #0A1F29",
"@ c #06212D",
"# c #0B222D",
"$ c #052532",
"% c #0C2632",
"& c #052836",
"* c #0D2935",
"= c #062A38",
"- c #0D2C39",
"; c #102732",
": c #102A36",
"> c #112D3A",
", c #0E313E",
"< c #13313E",
"1 c #19323E",
"2 c #0E3341",
"3 c #143542",
"4 c #1A3643",
"5 c #153846",
"6 c #1B3946",
"7 c #163B49",
"8 c #1B3D4B",
"9 c #213E4C",
"0 c #1D414E",
"q c #1E4452",
"w c #1F4857",
"e c #1F4959",
"r c #22414E",
"t c #224553",
"y c #244956",
"u c #294A56",
"i c #244D5C",
"p c #294E5B",
"a c #314F5A",
"s c #27505F",
"d c #2B505E",
"f c #32505B",
"g c #234F60",
"h c #255161",
"j c #2B5362",
"k c #2E5867",
"l c #295668",
"z c #2D5A6B",
"x c #315663",
"c c #325866",
"v c #305768",
"b c #325D6C",
"n c #3A5F6C",
"m c #2E5F71",
"M c #315F70",
"N c #35606F",
"B c #2F6173",
"V c #336273",
"C c #396575",
"Z c #3A6877",
"A c #346679",
"S c #3A6778",
"D c #35687A",
"F c #3B6B7C",
"G c #3C6E80",
"H c #3D7285",
"J c #437888",
/* pixels */
"@3335534588007800700000,,,<,@X@#---*-**,,,*****-<,,,<-<<5<:>663@",
"izcxzcnbbVCZZFFVMDABmmzzmBbp*-tdddlzbBZZDDZBZVVADACVVZZZZCCCNxy,",
"zbcpyuyyuppgjlzdggegiiiggsd0$<bksieeggszllzzmmNmzlkkcxxfxxxxxp6=",
"bVpppuiyuyyyyyyqeiegiiigsghq&5Bsiiiieggggeeieisiyiiuuuuuuuuuuh8&",
"MSppuiypyiypyiswesgigieggghs&5Bseigggggghggssssisssuuppaapjghh4&",
"bFjppypyyiyyipsyesssgiigegs0$,Zkeiigggggssssisigessupppdphgghp2&",
"zFxyiiuyiyippsiyehssggiggss0$,Bdeigehgggsssssigeiiiudppupgghgg-&",
"gZxuiipieiyiyyslyhsssggigis0$,Bseyigggghsssseggeissdppudpgg989%$",
"sFjyypiiiiyspihzkiidsiigiidy-=Mlyieiissssssgggggippdddpppu9igy3$",
"lZspysyiyssyisdhddu0giiiiisi,*zdeieiiiiiiiegegegippddd9uuyuhgh3&",
"VNyyspiysssisdsddpdyesesiiss<*zzeiyipiiiiggeiiiippdda9pppppigy>&",
"bleisyipsyssshddddddyssiisdd,,zkeiypppieegeiiiiipjuuuvapppgggg>&",
"ljyspyppsisshjdppppptypppidy*2Nlepiupypeeiiyeiipppujdjdjjhhggj5&",
"lcssyphssshshdfdpapaurpadpjt$5Ndippuppiweiyuipppp9djdjdphhhhg92&",
"zj0644688660r4486446:14460rr-,d011111011<50961<>449994>>24982%;$",
"77$$@#@@#@#**##;%::%@;%%#%*<@$<%#@####X@@#%:;#ooo;%:%++OO+@OoOOO",
"7777753<33=%&%$@@OO@57,,2000===,37332,<333<=@OX,62&$223222455223",
"FFZZCCVZZSZVVbnbl3%dFVZFFFFZVNZFFFCVVZZFVCVme$&BHHGvMGGGGGGJGGGG",
"kccbzllljlcbbbnbp13Ncujkcdddddccjsshsjjjjdpil7,VmmMGnGMvljvvvvjv",
"djlhhhypiipuppppt>-kddadapapaiyiiiiyypuiyyweq%5bgeeejhgggihyuuuj",
"xxxjlhhsgppjppjjt><xduffaaappiisppppsuiyuygeq@5Vgggg99huhuujjjfj",
"kfxjlhgspppfxjpht-,Nfaffaappsspiipupuuyuyyeg8@8bgyggyghuujuujjjv",
"hxjddhsipppjjjhht*<fffffadpssssppdpppdpyseey5OqAygggggjguhujjvjj",
"jjdddhsijpaajhhlw*>xfffaddsssssapaupssysyyyy5O2GMyy9yguuuauiufjj",
"pghpphpphpadjhhht;*Nfffadsssdddaauupiiiuyyyi7O-GGyigiipiuuuigguh",
"ppppgggppppdphjkt#:Ncaddssslddfddpdiipuiiyyi9O3GAyiyiiiiuhtiiiii",
"gggiiihppppdhhhjt#:Ncadsldsdddddpdippipyyyyyt%3Sgyiiieiiiygiiegi",
"igeeyippppppphdxu#;Ncdsssdsdadddusdiipuiyiyi8O3ziyiieieeyiygiiei",
"ghhihpppppphhjxxr;-NbssdlkcdNddddsdfddppgiiy5O8ziegeiiegigiigggg",
"q8008qttttttqttr6;*cleyytytttq00qttrur0q89983O8iqqqwqqq888qq9q88",
"%#####%%-;%%%%;;;##0,*;;;;#;##########;;%%%%%O$2-%%%->%%>;%:-%*:",
"XXXoXXXXOXX..XXXo@XOXXXX XX    XX o@@@XXXOXXXOOOOXXX.XOXOOXXXXXO",
"r0q0-X<0888qtttttt0ttytyyty98888%@0esieeeiyyyiyheeeqq0q0q7700qq0",
"Vklh3O8jzkkzxxadddjkzcMMMMMbvvli%*dFJDDBVBVVbzmBVVVBBBBBzlzzzNVZ",
"syse1X8jypiiupppsppipiihhppigiu8#*dFleieyyypsiiyypyiseesyyupiusd",
"sgyq<@0yyipppppussgpgphphhhigpg4@*zBggigippipisissyseseeytyyuisy",
"eesw>@0yeegppppusssspxjjjhhppii4@-dzegiiipipppsiysiiiigeuuuiiiii",
"ggdq-Xqpeiiiphhhusgsddpjhpgiiig4@=llegisippiigpppppiigipstiiiies",
"gpht>owieiyspggjsgssjppjphphiig4X-kdiiiiiiipihhpsppiheiyutsiigii",
"hshq&Xeliiyspgggesssppjpjphggig4X*dkesiipiiiipippiigggsppieieigg",
"heh8%Xehyiiihggggsdsdjdhhjiiiig7X:dcpiiiiiiipipsssgissisuuieiggg",
"hhl7%@ehiiiiiggghssddjjjggiggip9o*bduapiiisiipppiigisppusuiigggg",
"hgh0%Xylyiiiigggsssddhhhgiggiij9@*kdipiiiseiihppsisiisipidiigggg",
"hhh7-Xqhyiigiigiyhdspissggiggppt#-ddippsseispssssiiiiipiidiigggg",
"hgh5>X0diuiyiqi9tyyysiiiiiippppt#%ddddsdggsssspssgsiduddddhsgggl",
"753<-X37433>->:#;;>153353>3>1111#*t0606607557<570006666663580707",
"OO@@@XOO .XX... .....XXXo..   .o X@X@# ##@@@XXX@@######@##XXo@OX",
"5=@OXO@&2332*$%>3333>.X%>>%%%;%%--*-->-@ $*1773,*@@X@@=@XXX$%%$=",
"ABzheglzVBBBbczzlllg9@*9glvbbbVVBBmBmmVksBCVmkjkkjdidjt*X@0isllm",
"lmAADAVBbzlhhjkjgggi2X:inxdvkzczlsgsdpNaNCNksssddkkckjt* ,smlhhl",
"gggggieyyeyyyyyyieei>.>ipupyipiigssiiuuttutisipuuiuitis>X-slgggg",
"gggehehgiyyyypisgeeg>.>9ypphpgggssssipiitiiipiiiiitiiii0 @lmgggs",
"giehghieyyeypiiieege>.>ypipjphhphsssiiesqeiippuiuieiiis5 @sBgggs",
"gggihigyeeeiyeiiiigy>.3ypipxpjjpkkdsgiiwqsiipdautieeees<  qAgggg",
"iighigiieeeyiieygiii*.2iypjjxjjxdNksieiqeiiidadiiiiseie-  qDsegs",
"pippyeieiieiiieiqiqe%.3yypppjpjjdddssie0iesiipitiiiiiee<  iBisss",
"ipsyteiiieehpiiieyiq-X3iypppddhsddddsigqwegsssiiiisieei5 Xdmidid",
"ypiyeeiiigisiyyeeeeq*X3yyypdxxjhddsssgeiqieddssiipsieeg< #kdiiii",
"spiiyiiigegeiiiyiiie-.5yypdjjhsisssgggig0qgssssiiiiiiei1 *ddtdud",
"pipiiyyiigippyppiiee>.3yyiddhdsissiiigegeeeessseeieeeey1 *diuiui",
"sdpipiiyesyyypyiieig3.2yeiihssspssuagsggsssggiiygsgegep0 -duipss",
"00twttweeihpyyyeeiee>X-teeeeyywqwyuuetwer000wewt0qqeyut< -ptytr0",
"@##*%#%%-<6>:<3<>:>*%X%%%#%##+####+####@# #X@###o@#####@X#%##;;#",
"XXXXXX@XXOOXoo#@o.OOOOXXXoX.                     X      X     XX"
};
