/* XPM */
static char *wall3_resized[] = {
/* columns rows colors chars-per-pixel */
"64 64 210 2 ",
"   c #070505",
".  c #0B0606",
"X  c #0B0807",
"o  c #0D0A0A",
"O  c #110706",
"+  c #120807",
"@  c #140D0C",
"#  c #1A0C0C",
"$  c #15100F",
"%  c #1A100F",
"&  c #161110",
"*  c #1C1413",
"=  c #1E1817",
"-  c #1F1A19",
";  c #230E0E",
":  c #2A0F0F",
">  c #24100F",
",  c #221514",
"<  c #2C1413",
"1  c #231817",
"2  c #291817",
"3  c #241C1A",
"4  c #2A1D1B",
"5  c #331414",
"6  c #3B1515",
"7  c #351817",
"8  c #3A1817",
"9  c #331C1B",
"0  c #3C1C1B",
"q  c #26201F",
"w  c #2B201F",
"e  c #31211F",
"r  c #3A201E",
"t  c #252221",
"y  c #2C2322",
"u  c #2F2827",
"i  c #2F2C2B",
"p  c #332523",
"a  c #3A2523",
"s  c #342926",
"d  c #3B2926",
"f  c #342B2A",
"g  c #3B2D2B",
"h  c #36302E",
"j  c #3B302E",
"k  c #353231",
"l  c #3C3432",
"z  c #3D3837",
"x  c #3E3B3A",
"c  c #411717",
"v  c #441C1B",
"b  c #4B1C1C",
"n  c #551E1E",
"m  c #591F1F",
"M  c #41201F",
"N  c #4A201F",
"B  c #432523",
"V  c #4C2423",
"C  c #432927",
"Z  c #4B2826",
"A  c #422D2A",
"S  c #4C2E2C",
"D  c #522423",
"F  c #5C2323",
"G  c #522827",
"H  c #582827",
"J  c #532C2B",
"K  c #5D2C2B",
"L  c #44312E",
"P  c #49322F",
"I  c #55302E",
"U  c #423533",
"Y  c #4B3632",
"T  c #443936",
"R  c #4B3936",
"E  c #443C3A",
"W  c #4B3D3A",
"Q  c #533533",
"!  c #5B3432",
"~  c #533A36",
"^  c #5C3836",
"/  c #543D3A",
"(  c #5B3D3A",
")  c #632424",
"_  c #6C2626",
"`  c #642827",
"'  c #632C2B",
"]  c #6D2B2A",
"[  c #732C2B",
"{  c #7C2E2E",
"}  c #6D302F",
"|  c #643836",
" . c #6C3C3A",
".. c #733231",
"X. c #783736",
"o. c #46413F",
"O. c #4C413E",
"+. c #54413E",
"@. c #5A423E",
"#. c #63413E",
"$. c #77413F",
"%. c #454242",
"&. c #4C4443",
"*. c #4C4847",
"=. c #4D4A49",
"-. c #534542",
";. c #5B4542",
":. c #544946",
">. c #5C4946",
",. c #544C4A",
"<. c #5A4D4B",
"1. c #53504F",
"2. c #5D514E",
"3. c #555352",
"4. c #5C5453",
"5. c #5A5857",
"6. c #5D5B5B",
"7. c #624643",
"8. c #634A45",
"9. c #684844",
"0. c #624D4A",
"q. c #6A4E49",
"w. c #784847",
"e. c #734D4A",
"r. c #63514D",
"t. c #6B514D",
"y. c #71544E",
"u. c #79504C",
"i. c #625553",
"p. c #6B5551",
"a. c #655956",
"s. c #6B5956",
"d. c #635D5C",
"f. c #6A5D5A",
"g. c #725551",
"h. c #7C5553",
"j. c #725A55",
"k. c #7A5D57",
"l. c #735D59",
"z. c #7B5D5A",
"x. c #62605F",
"c. c #6C605E",
"v. c #72615E",
"b. c #7C625D",
"n. c #656362",
"m. c #6C6564",
"M. c #6A6867",
"N. c #6D6B6A",
"B. c #726562",
"V. c #7D6660",
"C. c #756966",
"Z. c #786966",
"A. c #736D6C",
"S. c #7A6D6B",
"D. c #72706F",
"F. c #7C706E",
"G. c #757373",
"H. c #7D7472",
"J. c #797877",
"K. c #7D7B7A",
"L. c #842F2F",
"P. c #843333",
"I. c #8C3333",
"U. c #873838",
"Y. c #933535",
"T. c #953939",
"R. c #814342",
"E. c #8B5553",
"W. c #8A605B",
"Q. c #836A63",
"!. c #896A67",
"~. c #8B6C65",
"^. c #856D69",
"/. c #916D68",
"(. c #84706C",
"). c #8D726C",
"_. c #92736C",
"`. c #837573",
"'. c #8F7771",
"]. c #867976",
"[. c #897976",
"{. c #847D7C",
"}. c #8A7D7A",
"|. c #937A74",
" X c #997D75",
".X c #937E7A",
"XX c #8B807E",
"oX c #92807E",
"OX c #9E837C",
"+X c #858383",
"@X c #8A8584",
"#X c #8C8A89",
"$X c #938583",
"%X c #9A8785",
"&X c #958986",
"*X c #928E8D",
"=X c #9B8C89",
"-X c #9D918E",
";X c #939191",
":X c #9C9593",
">X c #9D9B9B",
",X c #A38B84",
"<X c #A29B9A",
"1X c #AEA4A1",
"2X c #A9A8A7",
"3X c #B5ADAB",
"4X c #BAB3B1",
"5X c #C6BDBA",
"6X c #CAC1BE",
"7X c #D3CBC8",
/* pixels */
"* = q q 3 t y 1 * 1 1 3 1 3 3 y w 2 5 s g g f e w w w M p d f g s s g U U U U U R / -.>.0.0.0.0.>.>.>.9.7.>.>.>.>.>.;.-.Q Q W W ",
"3 E 5.d.5.n.x.i * u &.-.T U l y q 9 r U @.+.R L w q e Q E %.,.:.W j l L g g j U T T W W >.>.s.V.l.a.f.f.v.>.;./ -.<.<.>.! W O.Q ",
"k M.A.M.n.G.D.%.3 -.a.B.a.4.W y e M C @.y.b.k.@.s 1 d (.#X#XJ.N.n.z g s s h h l z z u q W W i.!.&XS.B.g.`.j.;.>.2.f.f.7.@.*.2.>.",
"z N.M.N.N.G.D.,.k a.i.i.;.<.E 4 v m P +.t.j.k.#.d 1 R *X>X*XN.6.=.k k h l l l U T l t $ s T / S.[.[.`.`.C.l.>.i.B.i.<.^ W <.f.a.",
"k n.G.N.n.n.n.=.j f.B.2.Q <.E p n Z L R 7.p.j.( d , >.:X:X#Xn.6.n.o.p j l T T o.o.U q * g W i.z.^.A.f.f.B.s.-.r.f.i.>./ >.a.f.2.",
"u %.%.%.%.%.=.E f i.i.&.O.W f e v Y R ~ 7.0.q.( A 8 <.#X#XK.N.1.3.E q f h l z O.:.o.T s j -.c.t.a.s.:.>.<.,./ <.a.<.-./ ;.:.,.,.",
"3 y u t u u i t 4 l l f y t q 0 a d p p A R / ~ d 7 O.6.6.6.6.3.x u s p w u f h z s s g R :.O.-.-.O.T W -.W >.-.E U S ' ' L j A ",
"3 3 1 3 3 3 3 3 q 1 1 * $ $ 7 F 7 * # @ 2 p d d e e u g k i f f y y s f s s g g U L g U >.0.:.@.;.>.;.>.0.7.( W d Z A ' ' S g A ",
"1 q w p e w p s d p p * * $ < 7 , , % % 1 y y 3 0 B y p y w p T 2.i.2.<.O.:.s.O.+.@.2.c.H.`.H.z.e.l.l.f.j.$. .r.7.q.@.Q S f.@X$X",
"1 w A Y R P P Y ( / Y 4 * 8 V 9 9 4 1 1 q j j g Z / f.B.0.W j H.:XXXXX$X&X-X1Xc.! Q.>X>X;X#X*X#XM.p.v.b.b./._.|.!.'.t.R +.1X7X5X",
"q w A A A P A L Y / A 4 3 F ' A f i q 3 j -.,.;.^ ,.C.}.j.-.T XX-X{.XX:X1X3X3X].R {.2X2X>X*X*X#XK.a.l.).|.,XOX).,X,X^.;.W <X6X5X",
"w e d e A Y P P A R S e 8 ' U x o.x y y U ,.i.#.7.i.Z.].f.g j F.&XXXXX-X1X3X1XXXW {.4X2X>X;X*X#X#Xv.j.Q.OX|.(.).,X,X^.0.R '.5X4X",
"1 e A A P Y R R S d g 9 b H o.1.5.x u f <.i.s.9.a.B.S.B.<.s h S.].F.C.F.oX=X-XS.W +X3X%XH.+X;X>X+Xv.p.Q.OX).(.|.|.'.j.;.A  .Q..X",
"1 w g A A A d r p p 4 < 7 f %.6.x.*.f f i.a.g.e.f.f.f.,.U q f i.c.4.c.S.XX&X-Xv.U XX<XE.j.n.M.G.D.s.p.b.Q.b.k.Q.V.j.;.Y r D D D ",
"* 1 w 2 4 4 < 2 3 4 , 5 6 p z o.o.l w f &.-.^ p.a.4.,.l q w e j z T :.2.<.r.4.z L 2.S.h.;.T x o.4.r.y.y.8.' Q +.R g y 2 7 7 0 c ",
"1 q 1 , 3 4 3 3 4 y 9 6 7 p y q 4 4 y q f d d f p s p w w p s s p p s u d S R @.>.;.+.W j f f U >.s.k.k.t.^ R l d 4 3 3 7 7 < 5 ",
"q w q q w w w u p r 7 < d L L s q w s s w e e e s y y s f g h h j j s g ;.E.~._.). X!.Q w 9 g -.s.(.=X=X}.^.f.R g 4 e 0 0 7 7 0 ",
"z z k k q - w w r N M L @.+.+.j q T <.i.@.R 2.2.:.U s W T U U j j u p j b.).~.).|.!.E.` 5 2 P i.v.[.=X-X%X}.C.-.R U R Z N N N v ",
"z i x i - * w g H ) C >.s.>.O.g q U 2.a.~ p.S.c.O.W l &.E z z h h t q E b.~.~._._. .} ) 8 v ' ;.C.(.XX%X}.`.<.R / / ( ' ' K D v ",
"k i z x q $ q J L.' R @.p.r.Y r q O.<.@.I v.v.2.W T j z T l h u y = 4 +.b.Q._. XW.n ) m c n ) I 2.f.v.f.;.;.T U R ;.| ' H H D M ",
"k i i x t $ = [ { A j L ;.@.L p q U O.' Y <.>.O.W j d f u t 3 & $ $ p +.;.q.k.b./ 0 F m c c ) b a j T L D n G U R @.~ D v N N M ",
"t - t t = o % ` n w e s j g s 3 * f C H g T +.R U y d g y 3 * * q u L O.R U A d 1 6 b b c c c c , 1 * 3 2 n ` Y R P d 4 < 8 v 0 ",
"= & & & $ @ > c : $ , 3 w w 4 * 1 w N r p s e r s g g g s s g j U T O.O.R g s 3 # ; 5 5 : c c 5 + % * 3 4 d S Y W W U s s s 0 v ",
"& & * * * : 6 @ @ $ q l :.2.:.&.O.P r q w f l o.W E T j s U W ,.1.4.f.a.,.g f e : ; : 5 5 6 c : ; 4 g W / i.<.T i.A.6.5.5.6.+.V ",
"= - - - * 7 5 $ o % h O.i.c.f.a.0.! g 3 h E W O.T z T h q g 4.m.c.m.G.G.6.x j L v b b 6 6 6 6 c D F 0.`.}.].v.T n.J.M.x.5.6.,.Z ",
"- - - = < : % $ $ q z :.a.c.c.c.9.! h 3 j T E T z h h u 3 g C.G.c.S.G.N.5.o.Y +.V ) _ ) n n ) ) _ ..^.%X$X$XC.W G.+XG.5.5.5.3.R ",
"= = - q 5 > * $ $ 1 f E 2.i.f.8.^ +.l 4 h U l l h f u q = U d.m.G.J.K.G.N.1.U ~ G _ [ _ ) ) _ _ ] u.'.}.%X}.s.~ x.x.,.T 6.d.3.O.",
"* * $ < > o $ o $ * q e l U l G I O.l = i f t y u q q = 1 g ,.,.x.D.J.D.m.=.d R Z F [ _ ) _ _ ) I S.F.l.f.r.O.P *.*.o.z %.3.=.T ",
"$ o + > + + o $ $ * = q w e e r g k y 4 y q 4 1 = = * = q s j E %.=.,.4.1.U } ! C N H ` F [ [ b d :.~ S U U j R +.O.U W &.-.-./ ",
"- $ # ; % * * * * = q e w = , w w w q u p p s s s y q p s g j j s s u J } B ' C e 9 4 4 , N F 7 p A C g s s j ~ @.+.+.+.>.>.>.>.",
"2.r < % 1 g j d e w p d w 2 e o.,.,.,.=.&.%.j j T :.W O.-.<.2.O.h s s ! ..p r s p 4 1 3 1 4 a g L ..} U f r Y ~ +.0.;.8.0.<.<.0.",
"<.r C 3 p U L g j L O.P e > l m.n.6.5.6.6.6.T g 2.c.4.i.f.m.c.2.E p U +./ W O.:.Q T &.f 1 s 5.A.S.R.' U P ~ ~ ~ @.t.y.q.8.@./ >.",
"~ M o.w j Y U L L W @.A 9 1 E N.M.3.3.6.6.1.h g <.2.i.m.m.m.A.m.:.q R 7.4.<.4.w.#.O.s.O., O.K.+X#Xj.U S ( 7.8.#.9.q.#.~ @.~ L @.",
"N M O.e g d g j j R Y a 4 3 E n.N.N.n.3.5.3.f s E <.m.m.f.c.Z.Z.2.y W <.i.v.4.>.r.:.s.E , :.H.+X+Xe.U L | 9.;./ ~ 7.+.+.+.P L :.",
"v d z w e w e f d g 9 e 4 * z M.N.n.x.6.3.=.k p U 2.m.f.>.m.Z.c.:.p A T O.a.a.W >.2.2.l * o.h.W.D.,.g U @.;.Y P Q L A P +.~ Y +.",
"0 j f 1 1 , , , 1 2 1 4 4 1 s 5.3.1.1.%.%.x u y h &.2.:.Y :.r.1.E 9 p s A Y U U T o.O.j = j 2.^ :.E d R +.g 9 a A L P ~ +.Y d O.",
", 1 * = * $ $ % % > > * 1 1 w g k k k f f i 3 q q q y s y s e p 4 4 p y e N p v 1 q f u = e l u g Y d T -.A g L A P R O.A g g O.",
"% * % 1 * o X > 5 5 4 w y w w w t 3 = = = = 3 - 3 4 w s h h o.&.o.O.*.z q 3 3 0 1 = q e d j d w g } ' Y O.:.W W +.+.Y g g A U +.",
"4 4 w e * % > 8 v C Y Y R d q 4 & & $ & $ = 3 * = 3 4 O.K.K.@X;XB.Z.*XK.U w s p r e g Y @.@.L d Y ! #.O.;.@.! p O.+.f h j z T s ",
"2 w e w * * 5 c v C U j p p 4 3 o & @ & & = q 9 * * 1 <.*X+X+XXXQ `.2X#X*.f g d L A Y +.@.@.A s T W -.O.j ! T...Y U w s h h h w ",
"1 2 w > * * 2 7 7 g d p 4 w * = & & & $ o & 3 3 & * q %.G.J.K.M.4.+X;XM.o.p p 4 4 S C Y Y Y d d U s y u w d T.T.| L q q q q q w ",
", , * % $ * 1 e p p d p 4 3 @ * = - & & & o & & $ , 3 T x.5.6.n.A.N.n.5.z y d y 4 p d p s f d e g q = e s g } I.I o.w w w s s u ",
"% # @ $ * 1 1 = * 1 3 4 3 = y s i s 1 # # * - 3 w w w y l f j %.*.*.x i 4 y g g T -.:.2.2.>.h w e j R >.s.p.#.y.@.+.S @.2.d.x.5.",
"1 w , % , e 1 % @ t U %.W 2.a.f.4.i.d * 4 g L L Y ~ L e q q y j O.O.O.h q 3 T -.f.s.a.B.C.2.U 1 +.p.v.Q.b.u.w.W.$.} { U.j.N.G.N.",
"w 2 2 2 w e ; $ 3 W 4.r.2.a.c.v.C.B.f * L @./ Y L R A 4 3 3 y k E &.:.l u q r.B.C.Z.i.i.v.i.O.q v.(.b.b.Z.y.w.R.P.I.Y.T.$.x.3.x.",
"4 2 w e e w % @ 3 &.,.i.s.s.B.Z.Z.2.u * @.t.t.Q 9 L A w * 4 w k z -.:.l s q <.a.a.c.2.a.c.f.+.q r.(.(.b.b.b.b.X.L.I.I.Y.U.O.%.%.",
"2 1 2 1 1 , % % y -.-.-.d U r.a.2.-.y = 8.y.@.9 B P A p * q 3 u f z U s y q -.:.O.<.<.<.-.-.E * 2.(.Q.t.j.j.j.X.L.Y.Y.Y.I.+.%.x ",
"% % % % $ $ # * 2 g l l p 0 &.+.O.O.3 4 ~ ~ r C R d e 3 * * = 3 q q y t y 0 a U j g g f s f q o s @.#.R O.R ~ ' I.Y.Y.Y.P.P l h ",
"$ @ @ $ @ $ % * , 1 $ * < < p p 1 4 1 1 w 9 2 d a 4 1 * * * * * % = q 3 p C C o.o.o.U y & o o o = 1 q w w w e Z { L.L.L.[ A d s ",
"% % & % * * 1 w w w 4 4 2 : % y j *.1.E T r 4 = 1 s p p y 4 3 q 1 = q U +.r.s.c.p.m.<.x & o - t h o.1 1 C G O.I [ _ _ ] ] K d s ",
"u u = % , 1 w e s g O.O.7 ; s x.M.G.K.4.5.C.E = &.F.i.<.<.,.W :.o.% h m.Z.S.F.Z.Z.S.@.l 4 s D.J.N.J.z q O.#.#.$.L.[ Z B ' ] e g ",
"u u = * , 1 w w e d e d < , o.M.M.J.+X@X#X#X=.3 C.{.c.2.4.a.i.H.r.3 +.S.c.S.S.(.F.XXc.U 2 O.+XXXXXXXO.w #.@.Y ' [ K A a Z ' e s ",
"s f q & 1 3 1 2 w e w w > ; O.G.m.1.x.+XXX*XO.q Z.B.C.1.<.f.S.*XC.q @.N.f.F.XXXXZ.C.a.o.& O.XX;X;X+X=.G #.Y M C M a e e d B e s ",
"q u y * 3 1 1 1 w p 2 , < ; z m.4.z M.S.N.K.=.q :.,.4.-.&.4.c.].B.3 z <.f.C.c.a.a.f.2.O.- O.G.G.K.G.@.{ ' C C M 4 1 2 4 a e 4 w ",
"w f w & % $ $ % , 3 1 # : , w E 1.3.x.6.5.6.o., U T z f f T ,.4.2.* s O.@.3.+.j o.o.o.g s j O.O.3.=.s H N 1 2 e 1 % , 2 e 4 4 p ",
"- = = * * $ @ $ * * * % ; % * u k h i z x k q 1 u u q 3 q s z E i $ = - 3 3 = , % 3 4 e y y y 1 t q - e e q , 1 1 1 4 4 3 1 w p ",
"& & & & * * * 3 4 , % $ + # + # @ # # * q * = q 3 - w 3 & $ $ $ @ & = q q 1 = 3 U U j j g O.C 1 e s w w s w q w p A l d w 3 w q ",
"@ o o o @ & $ & 3 , # X + # = * @ # % % 1 , * * & * = = = & = k o.=.6.n.x.j 3 d @.#.@.@.@.#.+.a O.i.O.O.i.+.w s p o.U l u p 3 * ",
"X X X X @ o o X $ # + # + # % # % q * $ > > $ $ $ $ $ @ $ = o.6.N.N.M.D.n.1.p +.r.@.#.@.@.@.+.d c.Z.,.c.c.4.e w o.o.O.3.+.=.x * ",
"o o o X $ o + X o # # ; > # # ; % q $ @ > % & * $ $ $ & & w O.,.J.D.M.D.x.o.4 +.#.@.t.t.@.O.+.2 c.Z.c.v.v.c.o.w +.3.x.n.n.n.o.- ",
"o o X X O . O . O ; + # : ; ; ; ; + @ @ % * % & & & = & * e U 5.N.D.J.D.N.o.3 @.t.@.#.y.+.j r w c.XXv.F.r.@.O.e 1.5.6.x.x.6.o.t ",
"          O + O O O # # ; # # ; # # @ + $ % $ $ & = & & & 4 E 3.1.5.n.n.M.o.% O.+.@.@.@.P r d q <.c.c.@.M M r 2 k o.6.6.6.6.o.t ",
"      X . O ; + + # # # # # # + # + + # # # @ @ o @ $ @ 1 4 s l o.x o.x o.q % 3 e e e e 1 w w , g O.o.e 5 8 8 5 , e o.o.o.x x = ",
"o o o $ O O O O O O O O O O # + + X + # : > # % * , , , < 3 = = = = = = * % , = * 1 w , 1 w w 1 q w w 2 5 7 7 7 5 < 3 q u t = = "
};
